<svg aria-hidden="true" style="position: absolute; width: 0; height: 0; overflow: hidden;" version="1.1" xmlns="http://www.w3.org/2000/svg" xmlns:xlink="http://www.w3.org/1999/xlink">
<defs>
<symbol id="icon-hero-scene" viewBox="0 0 41 32">
<path fill="#3f5c93" style="fill: var(--color1, #3f5c93)" d="M31.454 18.972h-15.437c-0.434 0-0.786-0.352-0.786-0.786v-14.697c0-0.434 0.352-0.786 0.786-0.786h15.437c0.434 0 0.786 0.352 0.786 0.786v14.697c0 0.434-0.352 0.786-0.786 0.786z"></path>
<path fill="#6291d7" style="fill: var(--color2, #6291d7)" d="M30.96 18.479h-15.437c-0.434 0-0.786-0.352-0.786-0.786v-14.697c0-0.434 0.352-0.786 0.786-0.786h15.437c0.434 0 0.786 0.352 0.786 0.786v14.697c0 0.434-0.352 0.786-0.786 0.786z"></path>
<path fill="#fff" style="fill: var(--color3, #fff)" d="M24.415 4.563h-7.325c-0.13 0-0.236-0.106-0.236-0.236s0.106-0.236 0.236-0.236h7.325c0.13 0 0.236 0.106 0.236 0.236s-0.106 0.236-0.236 0.236z"></path>
<path fill="#fff" style="fill: var(--color3, #fff)" d="M22.061 5.741h-4.97c-0.13 0-0.236-0.106-0.236-0.236s0.106-0.236 0.236-0.236h4.97c0.13 0 0.236 0.106 0.236 0.236s-0.106 0.236-0.236 0.236z"></path>
<path fill="#000" style="fill: var(--color4, #000)" d="M18.332 7.671h-1.309c-0.093 0-0.169-0.075-0.169-0.169s0.075-0.169 0.169-0.169h1.309c0.093 0 0.169 0.075 0.169 0.169s-0.075 0.169-0.169 0.169z"></path>
<path fill="#000" style="fill: var(--color4, #000)" d="M18.902 13.090v4.207c0 0.093-0.075 0.169-0.169 0.169h-0.681c-0.093 0-0.169-0.075-0.169-0.169v-4.207c0-0.093 0.075-0.169 0.169-0.169h0.681c0.093 0 0.169 0.075 0.169 0.169z"></path>
<path fill="#000" style="fill: var(--color4, #000)" d="M20.753 11.399v5.898c0 0.093-0.075 0.169-0.169 0.169h-0.681c-0.093 0-0.169-0.075-0.169-0.169v-5.898c0-0.093 0.075-0.169 0.169-0.169h0.681c0.093 0 0.169 0.076 0.169 0.169z"></path>
<path fill="#000" style="fill: var(--color4, #000)" d="M22.983 13.090v4.207c0 0.093-0.075 0.169-0.169 0.169h-0.681c-0.093 0-0.169-0.075-0.169-0.169v-4.207c0-0.093 0.075-0.169 0.169-0.169h0.681c0.093 0 0.169 0.075 0.169 0.169z"></path>
<path fill="#000" style="fill: var(--color4, #000)" d="M24.833 11.399v5.898c0 0.093-0.075 0.169-0.169 0.169h-0.681c-0.093 0-0.169-0.075-0.169-0.169v-5.898c0-0.093 0.075-0.169 0.169-0.169h0.681c0.093 0 0.169 0.076 0.169 0.169z"></path>
<path fill="#000" style="fill: var(--color4, #000)" d="M27.063 14.322v2.975c0 0.093-0.075 0.169-0.169 0.169h-0.681c-0.093 0-0.169-0.075-0.169-0.169v-2.975c0-0.093 0.075-0.169 0.169-0.169h0.681c0.093 0 0.169 0.076 0.169 0.169z"></path>
<path fill="#000" style="fill: var(--color4, #000)" d="M28.914 13.090v4.207c0 0.093-0.075 0.169-0.169 0.169h-0.681c-0.093 0-0.169-0.075-0.169-0.169v-4.207c0-0.093 0.075-0.169 0.169-0.169h0.681c0.093 0 0.169 0.075 0.169 0.169z"></path>
<path fill="#ecf5ff" style="fill: var(--color5, #ecf5ff)" d="M18.902 14.644v2.653c0 0.093-0.075 0.169-0.169 0.169h-0.681c-0.093 0-0.169-0.075-0.169-0.169v-2.653c0-0.093 0.075-0.169 0.169-0.169h0.681c0.093 0 0.169 0.076 0.169 0.169z"></path>
<path fill="#ecf5ff" style="fill: var(--color5, #ecf5ff)" d="M20.753 13.531v3.766c0 0.093-0.075 0.169-0.169 0.169h-0.681c-0.093 0-0.169-0.075-0.169-0.169v-3.766c0-0.093 0.075-0.169 0.169-0.169h0.681c0.093 0 0.169 0.075 0.169 0.169z"></path>
<path fill="#ecf5ff" style="fill: var(--color5, #ecf5ff)" d="M22.983 14.644v2.653c0 0.093-0.075 0.169-0.169 0.169h-0.681c-0.093 0-0.169-0.075-0.169-0.169v-2.653c0-0.093 0.075-0.169 0.169-0.169h0.681c0.093 0 0.169 0.076 0.169 0.169z"></path>
<path fill="#ecf5ff" style="fill: var(--color5, #ecf5ff)" d="M24.833 13.531v3.766c0 0.093-0.075 0.169-0.169 0.169h-0.681c-0.093 0-0.169-0.075-0.169-0.169v-3.766c0-0.093 0.075-0.169 0.169-0.169h0.681c0.093 0 0.169 0.075 0.169 0.169z"></path>
<path fill="#ecf5ff" style="fill: var(--color5, #ecf5ff)" d="M27.063 15.454v1.843c0 0.093-0.075 0.169-0.169 0.169h-0.681c-0.093 0-0.169-0.075-0.169-0.169v-1.843c0-0.093 0.075-0.169 0.169-0.169h0.681c0.093 0 0.169 0.076 0.169 0.169z"></path>
<path fill="#ecf5ff" style="fill: var(--color5, #ecf5ff)" d="M28.914 14.644v2.653c0 0.093-0.075 0.169-0.169 0.169h-0.681c-0.093 0-0.169-0.075-0.169-0.169v-2.653c0-0.093 0.075-0.169 0.169-0.169h0.681c0.093 0 0.169 0.076 0.169 0.169z"></path>
<path fill="#f9afab" style="fill: var(--color6, #f9afab)" d="M4.661 20.754c0 0.211-0.115 0.395-0.286 0.493l-0.050-0.103c-0.14-0.288-0.142-0.623-0.008-0.912 0.202 0.087 0.344 0.288 0.344 0.522z"></path>
<path fill="#fcbeb7" style="fill: var(--color7, #fcbeb7)" d="M10.76 15.619l-0.169-0.329c0.046-0.271 0.066-0.566 0.050-0.882-0.003-0.071-0.009-0.144-0.016-0.217-0.352 0.031-1.387 0.073-2.148-0.41 0.056 0.448-0.111 0.945-0.389 1.363-0.034-0.081-0.155-0.331-0.364-0.331-0.418 0-0.481 0.667-0.247 0.985-0.161 0.12-0.33 0.21-0.497 0.26 0 0-0.001-0.001-0.002-0.002v1.921h1.62v-0.837c0.218 0.080 0.411 0.126 0.548 0.126 0.408 0 1.026-0.547 1.325-1.484h0.189c0.062 0 0.113-0.050 0.113-0.113 0-0.018-0.004-0.036-0.012-0.052z"></path>
<path fill="#000" style="fill: var(--color4, #000)" d="M7.478 15.798c-0.234-0.318-0.17-0.985 0.247-0.985 0.209 0 0.33 0.25 0.364 0.331 0.278-0.419 0.445-0.915 0.389-1.363 0.761 0.483 1.795 0.441 2.148 0.41 0.007 0.073 0.013 0.146 0.016 0.217 0.031-0.029 0.102-0.109 0.107-0.231 0 0 0 0 0 0 0-0.003 0-0.007-0-0.010 0-0.001 0-0.002 0-0.003s-0-0.001-0-0.002c-0.009-0.692-0.643-1.866-2.188-1.866-1.637 0-1.944 1.066-1.944 1.066s-0.564 0.309-0.564 0.931c0 0.818 0.882 1.721 0.925 1.764 0.001 0.001 0.002 0.002 0.002 0.002 0.167-0.050 0.336-0.141 0.497-0.261z"></path>
<path fill="#f9afab" style="fill: var(--color6, #f9afab)" d="M8.598 17.978v-0.837c-0.45-0.165-1.003-0.476-1.374-0.829l1.374 1.666z"></path>
<path fill="#f49795" style="fill: var(--color8, #f49795)" d="M8.866 15.982c0.243 0 0.439-0.197 0.439-0.439s-0.197-0.439-0.439-0.439-0.439 0.197-0.439 0.439c0 0.243 0.197 0.439 0.439 0.439z"></path>
<path fill="#311643" style="fill: var(--color9, #311643)" d="M9.805 16.222c-0.088 0-0.149-0.033-0.185-0.064-0.046-0.038-0.065-0.079-0.067-0.083-0.009-0.020-0-0.044 0.020-0.054s0.044-0 0.053 0.020c0.002 0.005 0.057 0.116 0.212 0.098 0.022-0.003 0.042 0.013 0.045 0.036s-0.013 0.042-0.036 0.045c-0.015 0.002-0.029 0.003-0.043 0.003z"></path>
<path fill="#311643" style="fill: var(--color9, #311643)" d="M10.053 15.005c-0.049 0-0.088-0.040-0.088-0.088v-0.165c0-0.049 0.040-0.088 0.088-0.088s0.088 0.040 0.088 0.088v0.165c0 0.049-0.040 0.088-0.088 0.088z"></path>
<path fill="#fff" style="fill: var(--color3, #fff)" d="M10.648 14.794h-0.272v-0.502c0-0.022-0.018-0.040-0.040-0.040s-0.040 0.018-0.040 0.040v1.085c0 0.022 0.018 0.040 0.040 0.040s0.040-0.018 0.040-0.040v-0.502h0.272c0.022 0 0.040-0.018 0.040-0.040s-0.018-0.040-0.040-0.040z"></path>
<path fill="#3f5c93" style="fill: var(--color1, #3f5c93)" d="M13.325 21.29l-4.558 1.775-1.346 1.791c-0.207 0.276-0.5 0.47-0.828 0.557l1.994 1.373 3.816-2.008-0.157 4.875h1.712l1.431-6.602c0.26-1.2-0.92-2.207-2.064-1.761z"></path>
<path fill="#000" style="fill: var(--color4, #000)" d="M12.247 30.342v1.209c0 0.141 0.114 0.255 0.255 0.255h3.431c0.033 0 0.059-0.026 0.059-0.059v-0.223c0-0.108-0.063-0.205-0.161-0.25l-2.037-0.933h-1.547z"></path>
<path fill="#fcbeb7" style="fill: var(--color7, #fcbeb7)" d="M12.247 29.653v0.688h1.547l0.165-0.688h-1.712z"></path>
<path fill="#2a416c" style="fill: var(--color10, #2a416c)" d="M10.691 25.68l-2.103 1.107-1.569-1.107h3.672z"></path>
<path fill="#fcbeb7" style="fill: var(--color7, #fcbeb7)" d="M4.886 19.162l-0.543 1.018c-0.16 0.3-0.167 0.658-0.018 0.964l0.047 0.096 0.422-1.751c0.027-0.11 0.057-0.219 0.092-0.327z"></path>
<path fill="#000" style="fill: var(--color4, #000)" d="M6.594 25.413c0.011-0.003 0.021-0.006 0.032-0.009 0.314-0.090 0.595-0.281 0.796-0.548l1.346-1.791-0.106-3.642 1.356 0.295 0.538-1.697-3.576-1.411c-0.999 0.557-1.745 1.471-2.093 2.551-0.035 0.107-0.065 0.216-0.092 0.327l-1.458 6.046 2.907-0.072c0.12-0.003 0.237-0.020 0.35-0.050z"></path>
<path fill="#5694da" style="fill: var(--color11, #5694da)" d="M8.68 20.058l-1.776-1.118 1.757 0.484 0.018 0.634z"></path>
<path fill="#000" style="fill: var(--color4, #000)" d="M3.866 30.218l-0.638-0.623c-0.125-0.122-0.318-0.136-0.46-0.035l-2.736 1.961c-0.035 0.025-0.043 0.074-0.018 0.109l0.12 0.168c0.064 0.089 0.167 0.14 0.276 0.138l1.098-0.021 2.357-1.697z"></path>
<path fill="#fcbeb7" style="fill: var(--color7, #fcbeb7)" d="M3.866 31.915h-2.357l2.357-1.697v1.697z"></path>
<path fill="#3f5c93" style="fill: var(--color1, #3f5c93)" d="M11.641 28.913l-5.016-3.509c-0.011 0.003-0.021 0.006-0.032 0.009-0.113 0.030-0.231 0.047-0.35 0.050l-2.907 0.072c0 1.25 0.751 2.378 1.904 2.86l2.953 1.235-4.326 0.588v1.697h6.829c1.614 0 2.268-2.077 0.946-3.002z"></path>
<path fill="#fcbeb7" style="fill: var(--color7, #fcbeb7)" d="M17.843 14.325l-1.031-0.342c-0.061-0.020-0.128-0.015-0.185 0.016l-0.637 0.34-0.144 0.031c-0.054 0.012-0.098 0.049-0.119 0.1l-0.251 0.628-4.273 3.157-0.649-0.233-0.538 1.697 1.254 0.259c0.291 0.060 0.593-0.031 0.803-0.242l4.011-4.039 0.736-0.433c0.068-0.040 0.111-0.112 0.114-0.19l0.003-0.078 0.048-0.046c0.050-0.048 0.076-0.117 0.070-0.186l-0.006-0.065c0.054-0.052 0.078-0.127 0.067-0.201l-0.010-0.065 0.695 0.081c0.044 0.005 0.085-0.020 0.101-0.060 0.021-0.052-0.007-0.11-0.059-0.128z"></path>
<path fill="#f9afab" style="fill: var(--color6, #f9afab)" d="M12.146 19.664l-0.072 0.072c-0.21 0.211-0.511 0.302-0.803 0.242l-0.059-0.012v-0c0.034-0.267 0.262-0.473 0.538-0.473 0.156 0 0.297 0.066 0.395 0.171z"></path>
<path fill="#fcbeb7" style="fill: var(--color7, #fcbeb7)" d="M33.654 29.776l-0.166 0.689-1.808 0.568 0.26-1.257h1.714z"></path>
<path fill="#fcbeb7" style="fill: var(--color7, #fcbeb7)" d="M39.747 29.776l-0.049 0.851 0.113 0.042 0.074 0.365-1.807-0.568-0.045-0.689h1.714z"></path>
<path fill="#000" style="fill: var(--color4, #000)" d="M30.284 31.301l1.47-0.632-0.075 0.364 1.809-0.568v0.518c0 0.182-0.095 0.347-0.245 0.44l-0.156 0.445c-0.013 0.038-0.050 0.064-0.090 0.064-0.053 0-0.096-0.043-0.096-0.096v-0.289l-1.236 0.385h-1.25c-0.182 0-0.329-0.147-0.329-0.329 0-0.132 0.078-0.251 0.199-0.303z"></path>
<path fill="#000" style="fill: var(--color4, #000)" d="M38.076 30.979l0.001-0.518 1.807 0.573-0.074-0.365 1.468 0.636c0.121 0.052 0.199 0.171 0.198 0.303-0.001 0.182-0.148 0.329-0.33 0.328l-1.25-0.004-1.278-0.402-0.001 0.303c-0 0.053-0.043 0.096-0.096 0.096-0.041-0-0.077-0.026-0.090-0.064l-0.169-0.487c-0.116-0.097-0.186-0.242-0.186-0.399z"></path>
<path fill="#000" style="fill: var(--color4, #000)" d="M34.495 2.87v2.853h4.695c0 0 0-2.191 0-3.464 0-1.37-1.102-1.608-1.102-1.608s-0.401-0.644-1.567-0.644c-1.403 0-2.339 0.86-2.339 1.921 0 0.487 0.198 0.801 0.313 0.942zM34.519 2.397c0.177-0.040 0.676-0.48 0.676-0.93 0.391 0.646 1.584 1.576 3.359 1.008v0c0.006-0.001 0.011-0.001 0.017-0.001 0.422 0 0.452 1.174-0.259 1.242-0.010 0.034-0.021 0.067-0.032 0.098v1.91h-1.603v-0.742c-0.112 0.032-0.219 0.050-0.317 0.050-0.663 0-1.815-1.023-1.842-2.634z"></path>
<path fill="#fcbeb7" style="fill: var(--color7, #fcbeb7)" d="M36.677 4.981c-0.112 0.032-0.219 0.050-0.317 0.050-0.663 0-1.815-1.023-1.841-2.634 0.177-0.040 0.676-0.48 0.676-0.93 0.391 0.646 1.584 1.576 3.359 1.008v0c0.006-0.001 0.011-0.001 0.017-0.001 0.422 0 0.452 1.174-0.259 1.242-0.010 0.034-0.021 0.067-0.032 0.098v1.285l1.255 0.587v1.554h-4.171v-1.689l1.313-0.4-0-0.169z"></path>
<path fill="#f9afab" style="fill: var(--color6, #f9afab)" d="M35.364 7.239v-1.689l1.313-0.4v-0.169c0.371-0.105 0.793-0.359 1.103-0.595l-2.417 2.853z"></path>
<path fill="#f49795" style="fill: var(--color8, #f49795)" d="M37.533 3.757c0.241 0 0.437-0.196 0.437-0.437s-0.196-0.437-0.437-0.437c-0.241 0-0.437 0.196-0.437 0.437s0.196 0.437 0.437 0.437z"></path>
<path fill="#f49795" style="fill: var(--color8, #f49795)" d="M34.575 2.957c0.055 0.294 0.148 0.561 0.266 0.8 0.231-0.011 0.415-0.203 0.415-0.437 0-0.241-0.196-0.437-0.437-0.437-0.090 0-0.174 0.027-0.244 0.074z"></path>
<path fill="#fff" style="fill: var(--color3, #fff)" d="M34.695 2.61c0 0.342 0.278 0.62 0.62 0.62 0.334 0 0.607-0.265 0.619-0.596 0.187-0.106 0.35-0.030 0.402-0.001 0.012 0.331 0.285 0.597 0.619 0.597 0.342 0 0.62-0.278 0.62-0.62s-0.278-0.62-0.62-0.62c-0.319 0-0.583 0.243-0.616 0.553-0.081-0.037-0.234-0.081-0.408 0-0.033-0.311-0.297-0.553-0.616-0.553-0.342 0-0.62 0.278-0.62 0.62zM36.416 2.61c0-0.297 0.242-0.538 0.539-0.538s0.539 0.242 0.539 0.538-0.242 0.539-0.539 0.539c-0.297 0-0.539-0.242-0.539-0.539zM34.776 2.61c0-0.297 0.242-0.538 0.539-0.538s0.539 0.242 0.539 0.538-0.242 0.539-0.539 0.539c-0.297 0-0.539-0.242-0.539-0.539z"></path>
<path fill="#311643" style="fill: var(--color9, #311643)" d="M35.314 2.781c0.049 0 0.088-0.040 0.088-0.088v-0.165c0-0.049-0.040-0.088-0.088-0.088s-0.088 0.040-0.088 0.088v0.165c0 0.049 0.040 0.088 0.088 0.088z"></path>
<path fill="#311643" style="fill: var(--color9, #311643)" d="M36.927 2.781c0.049 0 0.088-0.040 0.088-0.088v-0.165c0-0.049-0.040-0.088-0.088-0.088s-0.088 0.040-0.088 0.088v0.165c0 0.049 0.039 0.088 0.088 0.088z"></path>
<path fill="#311643" style="fill: var(--color9, #311643)" d="M36.296 4.056c0.158 0 0.265-0.059 0.33-0.113 0.082-0.068 0.116-0.143 0.118-0.146 0.009-0.020 0-0.044-0.020-0.054s-0.044-0-0.054 0.020c-0.005 0.010-0.117 0.245-0.442 0.207-0.022-0.003-0.042 0.013-0.045 0.036s0.013 0.042 0.036 0.045c0.027 0.003 0.053 0.005 0.078 0.005z"></path>
<path fill="#000" style="fill: var(--color4, #000)" d="M39.473 12.441l0.667 2.825c0.193 0.816 0.269 1.655 0.225 2.492l-0.619 12.019h-1.714l-0.732-12.473-3.647 12.473h-1.714l3.018-17.335 4.516 0z"></path>
<path fill="#fff" style="fill: var(--color3, #fff)" d="M37.205 6.475c-0.304 0-0.548-0.293-0.712-0.59h1.736c-0.265 0.296-0.627 0.59-1.024 0.59z"></path>
<path fill="#fe9ecc" style="fill: var(--color12, #fe9ecc)" d="M33.957 6.498c0.268-0.417 0.674-0.724 1.148-0.869l1.15-0.35c0 0.048 0.084 0.329 0.237 0.606 0.164 0.297 0.408 0.59 0.712 0.59 0.397 0 0.759-0.294 1.024-0.59 0.269-0.3 0.436-0.603 0.436-0.603l1.050 0.487c0.476 0.221 0.817 0.657 0.917 1.172l0.7 3.614h-1.423l-0.207-1.363-0.229 3.25h-4.516l-0.41-3.459-1.076 0.968-0.892-1.307 1.378-2.145z"></path>
<path fill="#ff78ba" style="fill: var(--color13, #ff78ba)" d="M32.579 8.642l1.253 0.983-0.361 0.324-0.892-1.307z"></path>
<path fill="#fcbeb7" style="fill: var(--color7, #fcbeb7)" d="M27.678 5.245l1.48-0.507c0.148-0.047 0.308-0.030 0.442 0.048l0.575 0.336 3.296 4.828-0.453 0.414c-0.374 0.342-0.972 0.231-1.198-0.223l-2.169-4.349-0.539 0.066c-0.081 0.010-0.164-0.005-0.236-0.044l-0.19-0.101c-0.089-0.047-0.157-0.126-0.191-0.22l-0.039-0.11-0.723 0.098c-0.059 0.009-0.116-0.026-0.134-0.083-0.021-0.064 0.015-0.133 0.079-0.153z"></path>
<path fill="#fcbeb7" style="fill: var(--color7, #fcbeb7)" d="M39.31 15.597l0.332-0.299 0.267-4.744h1.423l-0.889 4.904 0.001 1.114c-0.008 0.151-0.074 0.293-0.185 0.397l-0.138 0.13c-0.169 0.159-0.394 0.244-0.626 0.235l-0.198-0.008c-0.070-0.003-0.112-0.080-0.075-0.14l0.287-0.475-0.024-0.887-0.143 0.517c-0.024 0.087-0.112 0.141-0.2 0.122v-0.49c-0-0.144 0.061-0.281 0.168-0.377z"></path>
<path fill="#000" style="fill: var(--color4, #000)" d="M39.473 12.441h-4.516l-0.064 0.367 4.608-0.246-0.029-0.121z"></path>
<path fill="#f9afab" style="fill: var(--color6, #f9afab)" d="M31.924 10.296c0.262 0.307 0.734 0.362 1.061 0.096-0.029-0.272-0.26-0.484-0.54-0.484-0.246 0-0.454 0.164-0.521 0.388z"></path>
</symbol>
<symbol id="icon-tel" viewBox="0 0 32 32">
<path d="M21.196 22.576l2.688-2.688c0.362-0.358 0.82-0.602 1.319-0.704s1.016-0.058 1.489 0.128l3.276 1.308c0.479 0.194 0.889 0.526 1.179 0.953s0.448 0.931 0.453 1.447v6c-0.003 0.351-0.077 0.698-0.217 1.020s-0.345 0.612-0.6 0.853c-0.256 0.241-0.557 0.428-0.887 0.549s-0.681 0.175-1.032 0.157c-22.956-1.428-27.588-20.868-28.464-28.308-0.041-0.365-0.004-0.735 0.109-1.085s0.298-0.672 0.544-0.945c0.246-0.273 0.547-0.491 0.883-0.64s0.7-0.224 1.068-0.222h5.796c0.517 0.002 1.022 0.158 1.45 0.449s0.759 0.703 0.95 1.183l1.308 3.276c0.192 0.472 0.241 0.99 0.141 1.489s-0.346 0.958-0.705 1.319l-2.688 2.688c0 0 1.548 10.476 11.94 11.772z"></path>
</symbol>
<symbol id="icon-notifications" viewBox="0 0 29 32">
<path d="M14.546 0c-5.356 0-10.182 3.731-10.182 8.727v6.602c0 0.933-0.276 1.846-0.794 2.623l-3.2 4.799c-0.221 0.333-0.348 0.719-0.367 1.119s0.071 0.796 0.26 1.148c0.189 0.352 0.47 0.647 0.813 0.852s0.735 0.313 1.135 0.313h7.245c0 0.669 0.132 1.331 0.388 1.948s0.631 1.179 1.104 1.652c0.473 0.473 1.034 0.848 1.652 1.104s1.28 0.387 1.948 0.387c0.668 0 1.33-0.132 1.948-0.387s1.179-0.631 1.651-1.104 0.848-1.034 1.104-1.652c0.256-0.618 0.388-1.28 0.388-1.948h7.247c0.4 0 0.792-0.108 1.135-0.314s0.623-0.5 0.812-0.852c0.189-0.352 0.278-0.749 0.259-1.148s-0.146-0.786-0.368-1.118l-3.2-4.797c-0.517-0.777-0.793-1.689-0.793-2.623v-6.602c0-4.996-4.828-8.727-10.182-8.727zM6.546 8.727c0-3.439 3.466-6.545 8-6.545s8 3.107 8 6.545v6.602c0 1.364 0.404 2.697 1.161 3.833l3.199 4.799c0.003 0.004 0.004 0.009 0.004 0.015l-0.001 0.009-0.006 0.009-0.009 0.006-0.010 0.001-24.701-0.026 0.004-0.015 3.2-4.797c0.756-1.135 1.16-2.469 1.159-3.833v-6.602zM17.455 26.182h-5.818c0 0.771 0.306 1.511 0.852 2.057s1.286 0.852 2.057 0.852c0.771 0 1.511-0.306 2.057-0.852s0.852-1.286 0.852-2.057z"></path>
</symbol>
<symbol id="icon-profile" viewBox="0 0 50 32">
<path stroke-linejoin="round" stroke-linecap="round" stroke-miterlimit="4" stroke-width="9.1429" d="M4.571 6.857l20.571 20.571 20.571-20.571"></path>
</symbol>
<symbol id="icon-vk" viewBox="0 0 53 32">
<path d="M50.301 3.295c0.351-1.177 0-2.040-1.658-2.040h-5.493c-1.398 0-2.037 0.746-2.387 1.566 0 0-2.793 6.88-6.751 11.342-1.278 1.298-1.861 1.708-2.558 1.708-0.348 0-0.854-0.41-0.854-1.587v-10.99c0-1.412-0.403-2.040-1.568-2.040h-8.632c-0.872 0-1.398 0.653-1.398 1.275 0 1.336 1.979 1.645 2.182 5.41v8.168c0 1.789-0.318 2.115-1.019 2.115-1.861 0-6.39-6.906-9.078-14.811-0.524-1.536-1.052-2.156-2.455-2.156h-5.491c-1.571 0-1.884 0.747-1.884 1.566 0 1.473 1.861 8.76 8.67 18.399 4.539 6.582 10.929 10.15 16.751 10.15 3.489 0 3.92-0.792 3.92-2.159v-4.975c0-1.584 0.333-1.903 1.438-1.903 0.812 0 2.209 0.415 5.468 3.585 3.722 3.76 4.339 5.448 6.43 5.448h5.491c1.568 0 2.352-0.792 1.901-2.356-0.493-1.556-2.272-3.821-4.632-6.501-1.282-1.528-3.199-3.173-3.782-3.996-0.814-1.060-0.579-1.528 0-2.47 0.002 0.003 6.693-9.517 7.39-12.754z"></path>
</symbol>
<symbol id="icon-instagram" viewBox="0 0 31 32">
<path d="M15.356 7.906c-4.361 0-7.881 3.52-7.881 7.881s3.52 7.881 7.881 7.881c4.361 0 7.881-3.52 7.881-7.881s-3.52-7.881-7.881-7.881zM15.356 20.909c-2.82 0-5.122-2.302-5.122-5.122s2.302-5.122 5.122-5.122c2.82 0 5.122 2.302 5.122 5.122s-2.302 5.122-5.122 5.122zM23.56 5.746c-1.018 0-1.841 0.822-1.841 1.841s0.822 1.841 1.841 1.841c1.018 0 1.84-0.818 1.84-1.841 0-0.242-0.047-0.481-0.139-0.705s-0.228-0.426-0.399-0.597-0.374-0.307-0.598-0.399c-0.223-0.092-0.463-0.14-0.705-0.139zM30.718 15.787c0-2.121 0.019-4.223-0.1-6.34-0.119-2.459-0.68-4.642-2.478-6.44-1.802-1.802-3.981-2.359-6.44-2.478-2.121-0.119-4.223-0.1-6.34-0.1-2.121 0-4.223-0.019-6.34 0.1-2.459 0.119-4.642 0.68-6.44 2.478-1.802 1.802-2.359 3.981-2.478 6.44-0.119 2.121-0.1 4.223-0.1 6.34s-0.019 4.223 0.1 6.34c0.119 2.459 0.68 4.642 2.478 6.44 1.802 1.802 3.981 2.359 6.44 2.478 2.121 0.119 4.223 0.1 6.34 0.1 2.121 0 4.223 0.019 6.34-0.1 2.459-0.119 4.642-0.68 6.44-2.478 1.802-1.802 2.359-3.981 2.478-6.44 0.123-2.117 0.1-4.219 0.1-6.34zM27.337 24.848c-0.28 0.699-0.619 1.222-1.16 1.76-0.542 0.542-1.060 0.88-1.76 1.16-2.021 0.803-6.82 0.622-9.061 0.622s-7.043 0.181-9.065-0.619c-0.699-0.281-1.222-0.619-1.76-1.16-0.542-0.542-0.88-1.061-1.16-1.76-0.799-2.025-0.619-6.824-0.619-9.065s-0.181-7.043 0.619-9.065c0.28-0.699 0.619-1.222 1.16-1.76s1.061-0.88 1.76-1.16c2.021-0.799 6.824-0.619 9.065-0.619s7.043-0.181 9.064 0.619c0.699 0.28 1.222 0.619 1.76 1.16 0.542 0.542 0.88 1.061 1.16 1.76 0.799 2.021 0.619 6.825 0.619 9.065s0.181 7.040-0.622 9.061z"></path>
</symbol>
<symbol id="icon-facebook" viewBox="0 0 16 32">
<path d="M4.52 32v-15.015h-3.631v-5.406h3.631v-4.618c0-3.629 2.145-6.961 7.086-6.961 2.001 0 3.48 0.21 3.48 0.21l-0.117 5.048c0 0-1.509-0.016-3.155-0.016-1.782 0-2.068 0.898-2.068 2.389v3.948h5.365l-0.233 5.406h-5.131v15.015h-5.227z"></path>
</symbol>
<symbol id="icon-telegram" viewBox="0 0 36 32">
<path d="M33.421 0.629l-31.747 12.512c-2.167 0.889-2.154 2.125-0.398 2.676l8.151 2.599 18.859-12.161c0.892-0.554 1.706-0.256 1.037 0.351l-15.279 14.095-0.562 8.587c0.824 0 1.187-0.386 1.649-0.842l3.959-3.935 8.235 6.217c1.518 0.855 2.609 0.415 2.987-1.437l5.406-26.038c0.553-2.267-0.847-3.294-2.296-2.624z"></path>
</symbol>
<symbol id="icon-viber" viewBox="0 0 31 32">
<path d="M14.551 0.431c-2.597 0.030-8.182 0.435-11.305 3.155-2.323 2.185-3.135 5.416-3.23 9.411-0.079 3.981-0.174 11.456 7.417 13.492v3.1c0 0-0.048 1.24 0.816 1.495 1.064 0.32 1.67-0.635 2.681-1.66l1.886-2.025c5.194 0.41 9.172-0.535 9.63-0.675 1.054-0.32 6.99-1.040 7.96-8.516 0.995-7.721-0.484-12.586-3.156-14.787h-0.016c-0.806-0.705-4.046-2.946-11.284-2.971 0 0-0.537-0.034-1.401-0.019zM14.64 2.602c0.737-0.005 1.185 0.025 1.185 0.025 6.127 0.015 9.051 1.766 9.741 2.355 2.25 1.83 3.409 6.216 2.56 12.662-0.806 6.25-5.621 6.646-6.512 6.916-0.379 0.115-3.883 0.935-8.297 0.665 0 0-3.287 3.766-4.315 4.735-0.163 0.17-0.353 0.22-0.474 0.195-0.174-0.040-0.227-0.245-0.216-0.525l0.031-5.145c-6.438-1.69-6.059-8.066-5.99-11.397 0.079-3.331 0.737-6.056 2.698-7.901 2.639-2.265 7.381-2.57 9.588-2.586h0.002zM15.126 5.932c-0.053-0-0.106 0.009-0.155 0.028s-0.094 0.047-0.131 0.082c-0.038 0.035-0.068 0.077-0.088 0.124s-0.031 0.096-0.031 0.146c0 0.215 0.184 0.385 0.406 0.385 1.003-0.018 2 0.152 2.933 0.502s1.784 0.871 2.504 1.534c1.47 1.355 2.186 3.175 2.213 5.555 0 0.21 0.179 0.385 0.406 0.385v-0.015c0.107 0 0.209-0.040 0.285-0.111s0.119-0.168 0.12-0.269c0.049-1.12-0.142-2.238-0.563-3.286s-1.061-2.004-1.882-2.809c-1.601-1.485-3.63-2.25-6.016-2.25zM9.794 6.812c-0.286-0.040-0.578 0.015-0.827 0.155h-0.021c-0.578 0.322-1.099 0.728-1.544 1.205-0.369 0.405-0.569 0.815-0.622 1.21-0.031 0.235-0.010 0.47 0.064 0.695l0.026 0.015c0.416 1.16 0.959 2.275 1.622 3.326 0.855 1.476 1.907 2.84 3.13 4.060l0.036 0.050 0.058 0.040 0.036 0.040 0.042 0.035c1.29 1.164 2.731 2.167 4.289 2.985 1.78 0.92 2.861 1.355 3.509 1.535v0.010c0.19 0.055 0.363 0.080 0.537 0.080 0.553-0.038 1.076-0.251 1.486-0.605 0.5-0.422 0.923-0.918 1.254-1.47v-0.010c0.311-0.555 0.205-1.080-0.243-1.435-0.897-0.745-1.868-1.406-2.898-1.975-0.69-0.355-1.391-0.14-1.675 0.22l-0.606 0.725c-0.311 0.36-0.875 0.31-0.875 0.31l-0.016 0.010c-4.209-1.021-5.331-5.066-5.331-5.066s-0.053-0.55 0.337-0.83l0.759-0.58c0.363-0.28 0.616-0.945 0.227-1.601-0.595-0.979-1.291-1.901-2.076-2.751-0.172-0.2-0.412-0.337-0.68-0.385l0.002 0.002zM15.826 7.953c-0.537 0-0.537 0.77 0.005 0.77 0.668 0.010 1.327 0.145 1.94 0.398s1.167 0.617 1.632 1.072c0.424 0.444 0.749 0.963 0.957 1.529s0.295 1.164 0.254 1.762c0.002 0.101 0.045 0.197 0.121 0.269s0.178 0.111 0.284 0.112l0.016 0.020c0.107-0.001 0.21-0.042 0.286-0.114s0.119-0.169 0.12-0.271c0.036-1.526-0.463-2.806-1.443-3.831-0.985-1.025-2.36-1.601-4.115-1.715h-0.058zM16.491 10.023c-0.553-0.015-0.575 0.77-0.026 0.785 1.333 0.065 1.981 0.705 2.066 2.020 0.002 0.1 0.045 0.195 0.12 0.265s0.176 0.11 0.281 0.11h0.016c0.054-0.002 0.107-0.015 0.156-0.036s0.093-0.053 0.129-0.091 0.064-0.083 0.082-0.131c0.018-0.049 0.025-0.1 0.022-0.151-0.095-1.715-1.080-2.681-2.829-2.77l-0.016-0.001z"></path>
</symbol>
<symbol id="icon-whatsapp" viewBox="0 0 32 32">
<path d="M27.337 4.651c-1.476-1.479-3.232-2.651-5.167-3.45s-4.009-1.207-6.103-1.201c-8.782 0-15.931 7.113-15.934 15.857 0 2.794 0.733 5.522 2.126 7.928l-2.259 8.215 8.446-2.206c2.336 1.266 4.954 1.93 7.614 1.931h0.007c8.78 0 15.929-7.113 15.933-15.857 0.006-2.083-0.403-4.148-1.203-6.073s-1.976-3.674-3.459-5.144zM16.067 29.049h-0.005c-2.372 0-4.7-0.635-6.741-1.839l-0.483-0.286-5.012 1.309 1.336-4.863-0.314-0.498c-1.326-2.101-2.028-4.533-2.025-7.014 0.004-7.267 5.944-13.179 13.249-13.179 1.74-0.004 3.463 0.336 5.070 0.999s3.066 1.637 4.292 2.866c1.233 1.222 2.21 2.676 2.875 4.276s1.005 3.316 0.999 5.048c-0.004 7.267-5.944 13.181-13.242 13.181zM23.332 19.176c-0.399-0.2-2.355-1.157-2.721-1.289-0.364-0.133-0.628-0.198-0.895 0.198s-1.029 1.288-1.262 1.553-0.465 0.297-0.863 0.099c-0.398-0.198-1.681-0.617-3.202-1.966-1.184-1.051-1.983-2.348-2.215-2.745s-0.025-0.611 0.176-0.809c0.179-0.177 0.398-0.463 0.596-0.694s0.264-0.396 0.398-0.661c0.133-0.265 0.067-0.496-0.034-0.694-0.099-0.2-0.896-2.15-1.228-2.943-0.321-0.768-0.65-0.666-0.895-0.677-0.254-0.010-0.508-0.015-0.761-0.014-0.202 0.005-0.4 0.052-0.583 0.137s-0.346 0.207-0.48 0.358c-0.366 0.397-1.393 1.355-1.393 3.305s1.427 3.835 1.626 4.1c0.199 0.265 2.808 4.266 6.801 5.983 0.951 0.408 1.693 0.652 2.27 0.835 0.953 0.302 1.821 0.258 2.508 0.157 0.765-0.113 2.355-0.957 2.687-1.883s0.332-1.719 0.233-1.885c-0.099-0.166-0.367-0.267-0.763-0.465z"></path>
</symbol>
</defs>
</svg>
